<svg xmlns="http://www.w3.org/2000/svg" xmlns:xlink="http://www.w3.org/1999/xlink"><symbol id="arrow" viewBox="0 0 36 16">
    <path d="M14.3178 15.7158C14.3178 15.7158 9.19711 8.96689 0.00313898 8.00276L35.7704 8.00276" stroke-width="6" stroke-miterlimit="10"/>
    <path d="M14.3178 0.289874C14.3178 0.289874 9.19712 7.0388 0.003153 8.00293" stroke-width="6" stroke-miterlimit="10"/>
</symbol><symbol id="fb" viewBox="0 0 26 26">
    <path clip-rule="evenodd" d="M13.1 1.2002C19.7 1.2002 25.1 6.6002 25.1 13.2002C25.1 19.2002 20.7 24.2002 15 25.1002V16.7002H17.8L18.3 13.2002H15V11.0002C15 10.9002 15 10.8002 15 10.6002C15.1 9.8002 15.6 9.1002 16.9 9.1002H18.4V6.1002C18.4 6.1002 17 5.9002 15.7 5.9002C13 5.9002 11.2 7.6002 11.2 10.6002V13.2002H8.19998V16.7002H11.2V25.1002C5.49998 24.2002 1.09998 19.2002 1.09998 13.2002C1.09998 6.6002 6.49998 1.2002 13.1 1.2002Z"/>
    <path clip-rule="evenodd" d="M13.125 1.24902C19.7524 1.24902 25.125 6.6216 25.125 13.249C25.125 19.2385 20.7368 24.203 15 25.1032V16.7178H17.7961L18.3281 13.249H15V10.9981C15 10.8795 15.0073 10.7612 15.0229 10.6451C15.1323 9.83229 15.6513 9.12402 16.9556 9.12402H18.4688V6.1709C18.4688 6.1709 17.0955 5.93652 15.7826 5.93652C13.0416 5.93652 11.25 7.59777 11.25 10.6053V13.249H8.20312V16.7178H11.25V25.1032C5.5132 24.203 1.125 19.2385 1.125 13.249C1.125 6.6216 6.49758 1.24902 13.125 1.24902Z"/>
</symbol><symbol id="in" viewBox="0 0 25 25">
    <path d="M5.57364 24.2492V8.05567H0.428739V24.2492H5.57364ZM3.00223 5.84492C4.7959 5.84492 5.91281 4.60113 5.91281 3.04749C5.87863 1.45809 4.7959 0.249512 3.0364 0.249512C1.27535 0.249512 0.125305 1.45809 0.125305 3.04749C0.125305 4.60168 1.24169 5.84492 2.96857 5.84492H3.00223ZM8.42105 24.2492H13.5654V15.2069C13.5654 14.7231 13.5991 14.2388 13.7348 13.8937C14.1065 12.9262 14.9532 11.9251 16.3745 11.9251C18.2355 11.9251 18.9806 13.41 18.9806 15.5872V24.2492H24.125V14.9642C24.125 9.99068 21.5873 7.67592 18.2024 7.67592C15.4269 7.67592 14.2085 9.29837 13.5313 10.404H13.5654V8.05621H8.42105C8.48837 9.57519 8.42105 24.2498 8.42105 24.2492Z"/>
</symbol><symbol id="tw" viewBox="0 0 25 25">
    <path d="M7.67252 24.6535C16.7292 24.6535 21.6828 15.5425 21.6828 7.64157C21.6828 7.38279 21.6789 7.12517 21.6684 6.86872C22.6293 6.02477 23.4655 4.97217 24.125 3.77269C23.2428 4.24829 22.2933 4.56885 21.2968 4.71339C22.3135 3.97319 23.094 2.80169 23.4616 1.40636C22.5103 2.09179 21.4572 2.58952 20.3349 2.85764C19.4373 1.69662 18.1576 0.969238 16.7416 0.969238C14.022 0.969238 11.8168 3.6468 11.8168 6.94799C11.8168 7.41776 11.86 7.87354 11.9445 8.31066C7.853 8.06121 4.2242 5.68206 1.7954 2.06381C1.37204 2.94739 1.1282 3.97435 1.1282 5.06892C1.1282 7.14382 1.99796 8.9751 3.31892 10.0464C2.51156 10.016 1.7522 9.74677 1.08884 9.298C1.08788 9.32247 1.08788 9.34812 1.08788 9.37376C1.08788 12.2693 2.78516 14.6869 5.03828 15.2347C4.62452 15.3711 4.18964 15.4446 3.74036 15.4446C3.42356 15.4446 3.11444 15.4061 2.81492 15.3374C3.4418 17.713 5.25908 19.4417 7.41524 19.4906C5.72948 21.0946 3.60692 22.0505 1.30004 22.0505C0.9026 22.0505 0.51092 22.0225 0.125 21.9677C2.3042 23.6637 4.8914 24.6535 7.67252 24.6535Z"/>
</symbol></svg>