<?xml version="1.0" standalone="no"?>
<!DOCTYPE svg PUBLIC "-//W3C//DTD SVG 20010904//EN"
 "http://www.w3.org/TR/2001/REC-SVG-20010904/DTD/svg10.dtd">
<svg version="1.0" xmlns="http://www.w3.org/2000/svg"
 width="740.000000pt" height="740.000000pt" viewBox="0 0 740.000000 740.000000"
 preserveAspectRatio="xMidYMid meet">
<metadata>
Created by potrace 1.14, written by Peter Selinger 2001-2017
</metadata>
<g transform="translate(0.000000,740.000000) scale(0.100000,-0.100000)"
fill="#000000" stroke="none">
<path d="M5323 7264 c-99 -48 -145 -104 -441 -542 -54 -79 -104 -155 -112
-170 -8 -15 -17 -29 -20 -32 -9 -7 -184 -273 -189 -285 -2 -5 -7 -12 -10 -15
-13 -11 -51 -70 -51 -80 0 -5 -4 -10 -10 -10 -5 0 -10 -7 -10 -15 0 -8 -4 -15
-8 -15 -5 0 -14 -10 -21 -22 -30 -57 -293 -452 -303 -456 -5 -2 -8 -10 -8 -18
0 -8 -4 -14 -10 -14 -5 0 -10 -7 -10 -15 0 -8 -4 -15 -10 -15 -5 0 -10 -7 -10
-15 0 -8 -4 -15 -10 -15 -5 0 -10 -6 -10 -14 0 -8 -3 -16 -7 -18 -5 -1 -26
-30 -49 -63 -97 -144 -198 -290 -204 -295 -3 -3 -40 -53 -82 -112 -43 -59 -87
-118 -99 -132 l-22 -25 -21 32 c-51 74 -191 262 -198 265 -5 2 -8 8 -8 14 0 6
-11 24 -25 42 -37 45 -36 45 -90 121 -27 39 -52 72 -55 75 -3 3 -39 52 -80
110 -41 57 -96 132 -122 165 -55 69 -70 89 -101 129 -114 150 -328 383 -457
496 -66 58 -226 160 -321 203 -82 39 -194 81 -209 80 -3 0 -16 4 -30 9 -14 5
-36 12 -50 14 -14 3 -41 9 -60 14 -19 4 -62 11 -95 15 -33 4 -73 9 -90 11 -38
5 -308 4 -358 0 -149 -14 -183 -28 -193 -80 -5 -30 7 -55 81 -171 30 -47 55
-89 55 -94 0 -5 3 -11 8 -13 4 -1 88 -131 187 -287 213 -336 221 -349 237
-378 6 -13 15 -23 20 -23 4 0 8 -4 8 -9 0 -9 229 -375 249 -398 6 -7 11 -15
11 -17 0 -3 41 -70 91 -148 51 -79 99 -155 108 -170 33 -56 165 -263 171 -268
3 -3 19 -27 35 -55 15 -27 46 -77 67 -109 47 -71 49 -77 23 -82 -30 -5 -232
-18 -460 -29 -170 -9 -227 -12 -365 -20 -63 -3 -153 -8 -200 -10 -308 -15
-607 -32 -885 -50 -201 -13 -297 -30 -367 -66 -180 -92 -142 -262 144 -639
100 -132 290 -327 354 -363 8 -4 26 -19 41 -33 14 -13 32 -24 39 -24 7 0 14
-4 16 -9 8 -20 147 -97 288 -159 67 -29 191 -65 300 -87 21 -4 106 -15 160
-21 25 -2 193 -6 373 -8 181 -2 331 -6 334 -9 5 -6 -37 -70 -49 -75 -5 -2 -8
-8 -8 -14 0 -12 -61 -102 -72 -106 -4 -2 -8 -8 -8 -14 0 -5 -13 -28 -28 -51
-16 -23 -36 -53 -46 -67 -75 -113 -112 -165 -118 -168 -5 -2 -8 -9 -8 -16 0
-7 -9 -21 -20 -31 -11 -10 -20 -24 -20 -32 0 -7 -4 -13 -10 -13 -5 0 -10 -7
-10 -15 0 -8 -3 -15 -8 -15 -4 0 -16 -16 -26 -35 -11 -19 -23 -35 -28 -35 -4
0 -8 -7 -8 -15 0 -8 -4 -15 -10 -15 -5 0 -10 -4 -10 -9 0 -5 -36 -58 -81 -117
-166 -223 -246 -426 -245 -622 1 -39 -3 -72 -7 -72 -5 0 -5 -5 -1 -12 4 -7 9
-21 10 -33 3 -27 12 -92 20 -138 11 -68 110 -331 146 -387 8 -14 29 -50 46
-81 48 -91 112 -192 125 -197 4 -2 7 -8 7 -14 0 -6 28 -45 63 -87 165 -203
306 -259 461 -181 37 18 66 36 66 41 0 5 5 9 11 9 12 0 117 105 157 156 40 51
107 147 142 204 19 30 37 57 40 60 6 6 217 329 240 369 8 14 22 33 31 43 9 10
22 31 30 46 8 15 16 29 19 32 3 3 20 28 38 55 46 71 48 74 92 138 22 32 40 60
40 63 0 5 40 64 50 74 3 3 52 77 110 165 58 88 107 162 110 165 3 3 34 50 70
105 36 55 67 102 70 105 3 3 45 66 94 140 49 74 97 145 107 158 l17 22 46 -65
c25 -36 46 -70 46 -75 0 -4 4 -10 8 -12 4 -1 34 -43 67 -93 32 -49 80 -123
107 -163 26 -41 48 -77 48 -82 0 -5 3 -10 8 -12 4 -2 36 -48 70 -103 35 -55
86 -134 113 -175 27 -41 52 -83 55 -92 4 -10 10 -18 14 -18 5 0 12 -10 16 -22
4 -13 10 -25 13 -28 12 -9 141 -210 141 -220 0 -4 3 -10 8 -12 4 -1 30 -37 56
-78 163 -249 341 -415 551 -514 193 -90 497 -118 700 -64 22 6 45 11 50 12
141 31 263 105 300 182 20 44 26 115 12 164 -20 74 -75 170 -246 430 -31 47
-58 89 -60 94 -2 5 -43 71 -92 148 -49 77 -89 144 -89 149 0 5 -4 9 -10 9 -5
0 -10 6 -10 14 0 8 -3 16 -7 18 -11 4 -113 167 -113 179 0 5 -4 9 -10 9 -5 0
-10 5 -10 10 0 12 -40 71 -55 82 -5 4 -7 8 -3 8 4 0 -15 34 -42 75 -28 41 -50
79 -50 85 0 5 -4 10 -9 10 -5 0 -13 10 -17 23 -4 12 -10 24 -14 27 -4 3 -33
48 -65 100 -32 52 -70 113 -84 135 -14 22 -26 42 -26 45 0 3 -8 16 -17 30 -33
52 -248 400 -248 403 0 2 186 4 413 4 553 0 1208 12 1472 27 175 10 206 13
282 31 37 9 73 18 78 19 6 1 16 5 22 9 7 5 22 10 33 12 11 2 34 13 50 25 17
12 30 18 30 14 0 -14 43 41 55 71 32 75 4 240 -61 362 -59 113 -223 292 -369
406 -33 26 -64 51 -70 55 -23 18 -112 78 -130 88 -11 6 -45 25 -77 42 -106 59
-298 137 -423 172 -101 28 -142 39 -170 44 -96 18 -195 35 -230 40 -22 3 -51
8 -65 10 -14 3 -50 7 -80 10 -30 3 -64 8 -75 10 -11 2 -56 7 -100 11 -44 4
-87 8 -95 10 -8 1 -42 6 -75 9 -70 9 -118 16 -122 20 -1 1 8 13 20 26 13 14
26 32 30 40 6 13 80 123 105 155 4 6 30 44 57 85 28 41 53 77 56 80 3 3 18 23
32 45 14 22 67 99 117 170 50 72 93 138 96 148 4 9 10 17 15 17 5 0 9 5 9 10
0 11 33 60 63 94 9 11 17 23 17 27 0 5 76 126 98 154 23 30 136 221 165 281
35 69 77 182 83 219 1 11 3 20 4 20 15 0 16 173 0 220 -41 127 -185 429 -268
565 -12 19 -29 50 -38 68 -9 17 -21 32 -27 32 -6 0 -8 3 -4 6 3 3 -16 36 -41
72 -26 37 -58 84 -72 104 -14 21 -28 38 -32 38 -5 0 -8 6 -8 13 0 19 -110 120
-155 142 -61 30 -148 29 -212 -1z"/>
</g>
</svg>
