<svg width="26" height="26" viewBox="0 0 26 26" fill="none" xmlns="http://www.w3.org/2000/svg">
<path fill-rule="evenodd" clip-rule="evenodd" d="M13.1 1.2002C19.7 1.2002 25.1 6.6002 25.1 13.2002C25.1 19.2002 20.7 24.2002 15 25.1002V16.7002H17.8L18.3 13.2002H15V11.0002C15 10.9002 15 10.8002 15 10.6002C15.1 9.8002 15.6 9.1002 16.9 9.1002H18.4V6.1002C18.4 6.1002 17 5.9002 15.7 5.9002C13 5.9002 11.2 7.6002 11.2 10.6002V13.2002H8.19998V16.7002H11.2V25.1002C5.49998 24.2002 1.09998 19.2002 1.09998 13.2002C1.09998 6.6002 6.49998 1.2002 13.1 1.2002Z" fill="#B8A4FD"/>
<path fill-rule="evenodd" clip-rule="evenodd" d="M13.125 1.24902C19.7524 1.24902 25.125 6.6216 25.125 13.249C25.125 19.2385 20.7368 24.203 15 25.1032V16.7178H17.7961L18.3281 13.249H15V10.9981C15 10.8795 15.0073 10.7612 15.0229 10.6451C15.1323 9.83229 15.6513 9.12402 16.9556 9.12402H18.4688V6.1709C18.4688 6.1709 17.0955 5.93652 15.7826 5.93652C13.0416 5.93652 11.25 7.59777 11.25 10.6053V13.249H8.20312V16.7178H11.25V25.1032C5.5132 24.203 1.125 19.2385 1.125 13.249C1.125 6.6216 6.49758 1.24902 13.125 1.24902Z" fill="#FFFDF8"/>
</svg>
